G04*
G04 #@! TF.GenerationSoftware,Altium Limited,Altium Designer,22.5.1 (42)*
G04*
G04 Layer_Color=32768*
%FSLAX44Y44*%
%MOMM*%
G71*
G04*
G04 #@! TF.SameCoordinates,D36B5827-C087-4E08-AA9B-A7BE46811C41*
G04*
G04*
G04 #@! TF.FilePolarity,Positive*
G04*
G01*
G75*
%ADD12C,0.1000*%
%ADD14C,0.2000*%
%ADD83C,0.0500*%
D12*
X1360170Y974170D02*
Y984170D01*
X1355170Y979170D02*
X1365170D01*
X1287860Y869950D02*
X1297860D01*
X1292860Y864950D02*
Y874950D01*
X951310Y1195070D02*
X961310D01*
X956310Y1190070D02*
Y1200070D01*
X1010810Y1135070D02*
Y1255070D01*
X901810Y1135070D02*
Y1255070D01*
X1010810D01*
X901810Y1135070D02*
X1010810D01*
X1225550Y1040210D02*
Y1050210D01*
X1220550Y1045210D02*
X1230550D01*
X1183640Y965280D02*
Y975280D01*
X1178640Y970280D02*
X1188640D01*
X1209040Y965280D02*
Y975280D01*
X1204040Y970280D02*
X1214040D01*
X1107040Y737810D02*
Y793810D01*
X1057040Y737810D02*
X1107040D01*
X1057040D02*
Y793810D01*
X1107040D01*
X1051560Y616030D02*
Y626030D01*
X1046560Y621030D02*
X1056560D01*
X1102440Y608330D02*
X1112440D01*
X1107440Y603330D02*
Y613330D01*
X900510Y855980D02*
X910510D01*
X905510Y850980D02*
Y860980D01*
X984330Y866140D02*
X994330D01*
X989330Y861140D02*
Y871140D01*
X1309370Y1096090D02*
Y1106090D01*
X1304370Y1101090D02*
X1314370D01*
X805260Y803910D02*
X815260D01*
X810260Y798910D02*
Y808910D01*
X988060Y721440D02*
Y731440D01*
X983060Y726440D02*
X993060D01*
X1337310Y1096090D02*
Y1106090D01*
X1332310Y1101090D02*
X1342310D01*
X868760Y749300D02*
X878760D01*
X873760Y744300D02*
Y754300D01*
X915750Y736600D02*
X925750D01*
X920750Y731600D02*
Y741600D01*
X868760Y725170D02*
X878760D01*
X873760Y720170D02*
Y730170D01*
X988060Y886540D02*
Y896540D01*
X983060Y891540D02*
X993060D01*
X936070Y880110D02*
X946070D01*
X941070Y875110D02*
Y885110D01*
X1030050Y880110D02*
X1040050D01*
X1035050Y875110D02*
Y885110D01*
X1343740Y922020D02*
X1353740D01*
X1348740Y917020D02*
Y927020D01*
X1343740Y843280D02*
X1353740D01*
X1348740Y838280D02*
Y848280D01*
X1141810Y957580D02*
X1151810D01*
X1146810Y952580D02*
Y962580D01*
X1112600Y558800D02*
X1122600D01*
X1117600Y553800D02*
Y563800D01*
X1174750Y537290D02*
Y547290D01*
X1169750Y542290D02*
X1179750D01*
X1202690Y537290D02*
Y547290D01*
X1197690Y542290D02*
X1207690D01*
X1245950Y558800D02*
X1255950D01*
X1250950Y553800D02*
Y563800D01*
X1132840Y589360D02*
Y599360D01*
X1127840Y594360D02*
X1137840D01*
X1174750Y589360D02*
Y599360D01*
X1169750Y594360D02*
X1179750D01*
X1202690Y589360D02*
Y599360D01*
X1197690Y594360D02*
X1207690D01*
X1234440Y589360D02*
Y599360D01*
X1229440Y594360D02*
X1239440D01*
X883920Y1209120D02*
Y1219120D01*
X878920Y1214120D02*
X888920D01*
X861060Y1209120D02*
Y1219120D01*
X856060Y1214120D02*
X866060D01*
D14*
X1322890Y694960D02*
X1425390D01*
Y798560D01*
X1322890D02*
X1425390D01*
X1322890Y694960D02*
Y798560D01*
X1278010Y1164410D02*
Y1264910D01*
X1168010D02*
X1278010D01*
X1168010Y1164410D02*
Y1264910D01*
Y1164410D02*
X1278010D01*
X680010Y970580D02*
X739510D01*
Y1096580D01*
X680010D02*
X739510D01*
X680010Y970580D02*
Y1096580D01*
X1141390Y1232810D02*
X1162390D01*
X1141390Y1187810D02*
Y1232810D01*
Y1187810D02*
X1162390D01*
Y1232810D01*
X1146970Y1065210D02*
X1166970D01*
X1146970Y1025210D02*
Y1065210D01*
Y1025210D02*
X1166970D01*
Y1065210D01*
X1017110Y1259030D02*
X1124110D01*
X1017110Y1126030D02*
Y1259030D01*
Y1126030D02*
X1124110D01*
Y1259030D01*
X1123435Y764025D02*
Y861575D01*
Y764025D02*
X1220985D01*
Y861575D01*
X1123435D02*
X1220985D01*
X1368520Y1184410D02*
X1428020D01*
X1368520Y1058410D02*
Y1184410D01*
Y1058410D02*
X1428020D01*
Y1184410D01*
X682550Y662770D02*
X742050D01*
Y813770D01*
X682550D02*
X742050D01*
X682550Y662770D02*
Y813770D01*
X917841Y812380D02*
Y823380D01*
X895719D02*
X917841D01*
X895719Y812380D02*
Y823380D01*
Y812380D02*
X917841D01*
X843500Y839880D02*
Y872080D01*
Y839880D02*
X883700D01*
Y872080D01*
X843500D02*
X883700D01*
X1299870Y1032370D02*
X1318870D01*
Y1078370D01*
X1299870D02*
X1318870D01*
X1299870Y1032370D02*
Y1078370D01*
X917841Y792060D02*
Y803060D01*
X895719D02*
X917841D01*
X895719Y792060D02*
Y803060D01*
Y792060D02*
X917841D01*
X1327810Y1032370D02*
X1346810D01*
Y1078370D01*
X1327810D02*
X1346810D01*
X1327810Y1032370D02*
Y1078370D01*
X1164910Y1103790D02*
Y1123790D01*
Y1103790D02*
X1204910D01*
Y1123790D01*
X1164910D02*
X1204910D01*
X1164910Y1126650D02*
Y1146650D01*
Y1126650D02*
X1204910D01*
Y1146650D01*
X1164910D02*
X1204910D01*
X682550Y929340D02*
X742050D01*
X682550Y828340D02*
Y929340D01*
Y828340D02*
X742050D01*
Y929340D01*
X1054830Y883350D02*
X1114330D01*
Y1034350D01*
X1054830D02*
X1114330D01*
X1054830Y883350D02*
Y1034350D01*
X1366150Y676610D02*
X1425650D01*
X1366150Y525610D02*
Y676610D01*
Y525610D02*
X1425650D01*
Y676610D01*
X1368520Y978000D02*
X1428020D01*
Y1054000D01*
X1368520D02*
X1428020D01*
X1368520Y978000D02*
Y1054000D01*
Y897990D02*
X1428020D01*
Y973990D01*
X1368520D02*
X1428020D01*
X1368520Y897990D02*
Y973990D01*
Y817980D02*
X1428020D01*
Y893980D01*
X1368520D02*
X1428020D01*
X1368520Y817980D02*
Y893980D01*
X1121160Y896050D02*
Y920050D01*
Y896050D02*
X1185160D01*
Y920050D01*
X1121160D02*
X1185160D01*
X1100770Y792640D02*
Y812640D01*
X1060770D02*
X1100770D01*
X1060770Y792640D02*
Y812640D01*
Y792640D02*
X1100770D01*
Y815500D02*
Y835500D01*
X1060770D02*
X1100770D01*
X1060770Y815500D02*
Y835500D01*
Y815500D02*
X1100770D01*
X1238570Y782480D02*
Y802480D01*
Y782480D02*
X1278570D01*
Y802480D01*
X1238570D02*
X1278570D01*
X1166810Y924720D02*
Y944720D01*
X1126810D02*
X1166810D01*
X1126810Y924720D02*
Y944720D01*
Y924720D02*
X1166810D01*
X1100770Y724060D02*
Y744060D01*
X1060770D02*
X1100770D01*
X1060770Y724060D02*
Y744060D01*
Y724060D02*
X1100770D01*
X1041560Y785810D02*
X1061560D01*
X1041560Y745810D02*
Y785810D01*
Y745810D02*
X1061560D01*
Y785810D01*
X1105010Y722251D02*
X1214010D01*
X1105010Y639189D02*
Y722251D01*
Y639189D02*
X1214010D01*
Y722251D01*
X1097980Y456660D02*
Y516160D01*
Y456660D02*
X1248980D01*
Y516160D01*
X1097980D02*
X1248980D01*
X683440Y1129555D02*
X845640D01*
Y1240265D01*
X683440D02*
X845640D01*
X683440Y1129555D02*
Y1240265D01*
X941530Y1018380D02*
Y1125380D01*
X808530D02*
X941530D01*
X808530Y1018380D02*
Y1125380D01*
Y1018380D02*
X941530D01*
X873420Y1143360D02*
X894420D01*
Y1188360D01*
X873420D02*
X894420D01*
X873420Y1143360D02*
Y1188360D01*
D83*
X1350670Y995670D02*
X1369670D01*
X1350670Y962670D02*
X1369670D01*
Y995670D01*
X1350670Y962670D02*
Y995670D01*
X1247360Y833950D02*
X1247360Y905950D01*
X1338360D01*
Y833950D02*
Y905950D01*
X1247360Y833950D02*
X1338360D01*
X1168050Y993710D02*
X1283050D01*
X1168050Y1096710D02*
X1283050D01*
X1168050Y993710D02*
Y1096710D01*
X1283050Y993710D02*
Y1096710D01*
X1174140Y989280D02*
X1193140D01*
X1174140Y951280D02*
X1193140D01*
Y989280D01*
X1174140Y951280D02*
Y989280D01*
X1199540D02*
X1218540D01*
X1199540Y951280D02*
X1218540D01*
Y989280D01*
X1199540Y951280D02*
Y989280D01*
X1015560Y666530D02*
X1087560Y666530D01*
Y575530D02*
Y666530D01*
X1015560Y575530D02*
X1087560D01*
X1015560D02*
Y666530D01*
X1122440Y580330D02*
Y636330D01*
X1092440Y580330D02*
Y636330D01*
X1122440D01*
X1092440Y580330D02*
X1122440D01*
X921010Y840380D02*
Y871580D01*
X890010Y840380D02*
Y871580D01*
Y840380D02*
X921010D01*
X890010Y871580D02*
X921010D01*
X962830Y852140D02*
Y880140D01*
X1015830Y852140D02*
Y880140D01*
X962830D02*
X1015830D01*
X962830Y852140D02*
X1015830D01*
X1299870Y1082090D02*
X1318870D01*
X1299870Y1120090D02*
X1318870D01*
X1299870Y1082090D02*
Y1120090D01*
X1318870Y1082090D02*
Y1120090D01*
X951260Y851830D02*
X1025760D01*
Y745830D02*
Y851830D01*
X951260Y745830D02*
X1025760D01*
X951260D02*
Y851830D01*
X795260Y775910D02*
Y831910D01*
X825260Y775910D02*
Y831910D01*
X795260Y775910D02*
X825260D01*
X795260Y831910D02*
X825260D01*
X960060Y711440D02*
X1016060D01*
X960060Y741440D02*
X1016060D01*
Y711440D02*
Y741440D01*
X960060Y711440D02*
Y741440D01*
X1327810Y1082090D02*
X1346810D01*
X1327810Y1120090D02*
X1346810D01*
X1327810Y1082090D02*
Y1120090D01*
X1346810Y1082090D02*
Y1120090D01*
X847260Y735300D02*
Y763300D01*
X900260Y735300D02*
Y763300D01*
X847260D02*
X900260D01*
X847260Y735300D02*
X900260D01*
X935750Y708600D02*
Y764600D01*
X905750Y708600D02*
Y764600D01*
X935750D01*
X905750Y708600D02*
X935750D01*
X847260Y711170D02*
Y739170D01*
X900260Y711170D02*
Y739170D01*
X847260D02*
X900260D01*
X847260Y711170D02*
X900260D01*
X960060Y876540D02*
X1016060D01*
X960060Y906540D02*
X1016060D01*
Y876540D02*
Y906540D01*
X960060Y876540D02*
Y906540D01*
X926070Y852110D02*
Y908110D01*
X956070Y852110D02*
Y908110D01*
X926070Y852110D02*
X956070D01*
X926070Y908110D02*
X956070D01*
X1020050Y852110D02*
Y908110D01*
X1050050Y852110D02*
Y908110D01*
X1020050Y852110D02*
X1050050D01*
X1020050Y908110D02*
X1050050D01*
X1365240Y912520D02*
Y931520D01*
X1332240Y912520D02*
Y931520D01*
Y912520D02*
X1365240D01*
X1332240Y931520D02*
X1365240D01*
Y833780D02*
Y852780D01*
X1332240Y833780D02*
Y852780D01*
Y833780D02*
X1365240D01*
X1332240Y852780D02*
X1365240D01*
X1127810Y948080D02*
Y967080D01*
X1165810Y948080D02*
Y967080D01*
X1127810D02*
X1165810D01*
X1127810Y948080D02*
X1165810D01*
X1144100Y544800D02*
Y572800D01*
X1091100Y544800D02*
Y572800D01*
Y544800D02*
X1144100D01*
X1091100Y572800D02*
X1144100D01*
X1160750Y568790D02*
X1188750D01*
X1160750Y515790D02*
X1188750D01*
Y568790D01*
X1160750Y515790D02*
Y568790D01*
X1188690D02*
X1216690D01*
X1188690Y515790D02*
X1216690D01*
Y568790D01*
X1188690Y515790D02*
Y568790D01*
X1224450Y544800D02*
Y572800D01*
X1277450Y544800D02*
Y572800D01*
X1224450D02*
X1277450D01*
X1224450Y544800D02*
X1277450D01*
X1124340Y573860D02*
Y614860D01*
Y573860D02*
X1141340D01*
X1124340Y614860D02*
X1141340D01*
Y573860D02*
Y614860D01*
X1166250Y573860D02*
Y614860D01*
Y573860D02*
X1183250D01*
X1166250Y614860D02*
X1183250D01*
Y573860D02*
Y614860D01*
X1194190Y573860D02*
Y614860D01*
Y573860D02*
X1211190D01*
X1194190Y614860D02*
X1211190D01*
Y573860D02*
Y614860D01*
X1225940Y573860D02*
Y614860D01*
Y573860D02*
X1242940D01*
X1225940Y614860D02*
X1242940D01*
Y573860D02*
Y614860D01*
X874420Y1195120D02*
X893420D01*
X874420Y1233120D02*
X893420D01*
X874420Y1195120D02*
Y1233120D01*
X893420Y1195120D02*
Y1233120D01*
X851560Y1233120D02*
X870560D01*
X851560Y1195120D02*
X870560D01*
Y1233120D01*
X851560Y1195120D02*
Y1233120D01*
M02*
