G04*
G04 #@! TF.GenerationSoftware,Altium Limited,Altium Designer,22.5.1 (42)*
G04*
G04 Layer_Color=16711935*
%FSLAX44Y44*%
%MOMM*%
G71*
G04*
G04 #@! TF.SameCoordinates,D36B5827-C087-4E08-AA9B-A7BE46811C41*
G04*
G04*
G04 #@! TF.FilePolarity,Negative*
G04*
G01*
G75*
%ADD66C,1.5500*%
%ADD67R,1.5500X1.5500*%
%ADD68C,0.9000*%
%ADD69R,1.4000X1.4000*%
%ADD70C,1.4000*%
%ADD71C,1.1000*%
%ADD72C,1.3000*%
%ADD73R,1.3000X1.3000*%
%ADD74R,1.4000X1.4000*%
%ADD75C,1.4732*%
%ADD76C,3.2004*%
D66*
X1386840Y772160D02*
D03*
Y746760D02*
D03*
Y721360D02*
D03*
X1361440Y772160D02*
D03*
Y746760D02*
D03*
X1393020Y1028500D02*
D03*
Y948490D02*
D03*
Y868480D02*
D03*
D67*
X1361440Y721360D02*
D03*
X1393020Y1003500D02*
D03*
Y923490D02*
D03*
Y843480D02*
D03*
D68*
X1201010Y1203910D02*
D03*
X1245010D02*
D03*
D69*
X715010Y1071080D02*
D03*
X1393020Y1083910D02*
D03*
X717550Y788270D02*
D03*
Y903840D02*
D03*
X1089830Y1008850D02*
D03*
X1390650Y551110D02*
D03*
D70*
X715010Y1046080D02*
D03*
Y1021080D02*
D03*
Y996080D02*
D03*
X1393020Y1108910D02*
D03*
Y1133910D02*
D03*
Y1158910D02*
D03*
X717550Y688270D02*
D03*
Y713270D02*
D03*
Y738270D02*
D03*
Y763270D02*
D03*
Y853840D02*
D03*
Y878840D02*
D03*
X1089830Y908850D02*
D03*
Y933850D02*
D03*
Y958850D02*
D03*
Y983850D02*
D03*
X1390650Y651110D02*
D03*
Y626110D02*
D03*
Y601110D02*
D03*
Y576110D02*
D03*
X1123480Y481160D02*
D03*
X1148480D02*
D03*
X1173480D02*
D03*
X1198480D02*
D03*
D71*
X697550Y804270D02*
D03*
X1069830Y1024850D02*
D03*
X1410650Y535110D02*
D03*
X1239480Y501160D02*
D03*
D72*
X1173160Y908050D02*
D03*
X1153160D02*
D03*
D73*
X1133160D02*
D03*
D74*
X1223480Y481160D02*
D03*
D75*
X952500Y1183640D02*
D03*
X1328420Y922020D02*
D03*
X979170Y932180D02*
D03*
X1028700D02*
D03*
X1035050Y911860D02*
D03*
X1052830Y864870D02*
D03*
X760730Y1139190D02*
D03*
Y1168400D02*
D03*
Y1201420D02*
D03*
Y1230630D02*
D03*
X737870Y1139190D02*
D03*
Y1168400D02*
D03*
Y1201420D02*
D03*
Y1230630D02*
D03*
X715010Y1139190D02*
D03*
Y1168400D02*
D03*
Y1201420D02*
D03*
Y1230630D02*
D03*
X692150Y1201420D02*
D03*
Y1230630D02*
D03*
Y1168400D02*
D03*
Y1139190D02*
D03*
X1198880Y511810D02*
D03*
X1174750D02*
D03*
X1158240Y1113790D02*
D03*
Y1136650D02*
D03*
X1162050Y1168400D02*
D03*
X1042670Y1196340D02*
D03*
X900430Y1181100D02*
D03*
X853440Y1184910D02*
D03*
X1088390Y1236980D02*
D03*
X830580Y1231900D02*
D03*
X920750Y1055370D02*
D03*
X1268730Y1141730D02*
D03*
X1223010D02*
D03*
X1093470Y656590D02*
D03*
X1103630Y704850D02*
D03*
X1239520Y840740D02*
D03*
X1346200Y869950D02*
D03*
X1244600Y775970D02*
D03*
X1083310Y802640D02*
D03*
Y825500D02*
D03*
X1074420Y984250D02*
D03*
X972820Y910590D02*
D03*
X922020Y895350D02*
D03*
X939800Y848360D02*
D03*
X1118870Y957580D02*
D03*
X1088644Y593090D02*
D03*
X1323340Y1115060D02*
D03*
X1291590Y845820D02*
D03*
X1256555Y913130D02*
D03*
X1054100Y802640D02*
D03*
Y820420D02*
D03*
X791210Y817880D02*
D03*
X1221740Y1026160D02*
D03*
X1156970Y1071880D02*
D03*
X1198880Y1064260D02*
D03*
X1248410Y1062990D02*
D03*
X1197610Y816610D02*
D03*
X1153160Y817880D02*
D03*
X981710Y848360D02*
D03*
X977900Y792480D02*
D03*
X998220Y816610D02*
D03*
Y830580D02*
D03*
X1019810Y726440D02*
D03*
X1065530Y717550D02*
D03*
X1050290Y739140D02*
D03*
X1051560Y566420D02*
D03*
X1209040Y943610D02*
D03*
X1357630Y828040D02*
D03*
D76*
X1418590Y469900D02*
D03*
X701040Y471170D02*
D03*
X777240Y1106170D02*
D03*
X1418590Y1243330D02*
D03*
M02*
