M48
;Layer_Color=9474304
;FILE_FORMAT=4:4
METRIC,LZ
;TYPE=PLATED
T1F00S00C0.7112
T2F00S00C0.8000
T3F00S00C0.9000
T4F00S00C1.0000
T5F00S00C2.9972
;TYPE=NON_PLATED
T6F00S00C0.9000
T7F00S00C1.1000
%
T01
X0119888Y0051181
X012446Y0077597
X0110363Y0070485
X0106553Y0071755
X0105029Y0073914
X0101981Y0072644
X009779Y0079248
X0109347Y0065659
X01088644Y0059309
X0105156Y0056642
X0117475Y0051181
X0079121Y0081788
X0076073Y0113919
X0073787
X0071501
X0069215
Y011684
X0071501
X0073787
X0076073
X0085344Y0118491
X0090043Y011811
X009525Y0118364
X0092075Y0105537
X0092202Y0089535
X009398Y0084836
X0098171
X0099822Y0083058
Y0081661
X010541Y0082042
Y0080264
X0108331
Y008255
X0105283Y0086487
X0103505Y0091186
X010287Y0093218
X0097917
X0097282Y0091059
X0107442Y0098425
X0111887Y0095758
X0115697Y0107188
X0115824Y0111379
Y0113665
X0116205Y011684
X0115316Y0081788
X0119761Y0081661
X0123952Y0084074
X0129159Y0084582
X013462Y0086995
X0135763Y0082804
X0132842Y0092202
X01256555Y0091313
X0120904Y0094361
X0122174Y0102616
X0119888Y0106426
X0124841Y0106299
X0126873Y0114173
X0122301
X0132334Y0111506
X0108839Y0123698
X0104267Y0119634
X0083058Y012319
X0076073Y0123063
X0073787
X0071501
X0069215
Y0120142
X0071501
X0073787
X0076073
T02
X0113316Y0090805
X0115316
X0117316
T03
X0119848Y0048116
X0122348
X0139065Y0055111
Y0057611
Y0060111
Y0062611
Y0065111
X0117348Y0048116
X0114848
X0112348
X0071755Y0068827
Y0071327
Y0073827
Y0076327
Y0078827
Y0085384
Y0087884
Y0090384
X0071501Y0099608
Y0102108
Y0104608
Y0107108
X0108983Y0100885
Y0098385
Y0095885
Y0093385
Y0090885
X0139302Y0108391
Y0110891
Y0113391
Y0115891
T04
X0136144Y0072136
X0138684
Y0074676
Y0077216
X0136144
Y0074676
X0139302Y0084348
Y0086848
Y0092349
Y0094849
Y010035
Y010285
T05
X0141859Y004699
X0070104Y0047117
X0077724Y0110617
X0141859Y0124333
T06
X0120101Y0120391
X0124501
T07
X0123948Y0050116
X0141065Y0053511
X0069755Y0080427
X0106983Y0102485
M30
